# xmcd
#
# Track frame offsets: 
#        150
#        21529
#        45390
#        64865
#        88538
#        107991
#        134913
#        156768
#        177369
#        198435
#        225752
#
# Disc length: 3357 seconds
#
# Revision: 0
# Processed by: cddbd v1.5.2PL0 Copyright (c) Steve Scherf et al.
# Submitted via: ExactAudioCopyFreeDBPlugin 1.0
#
DISCID=930d1b0b
DTITLE=Creed - Human Clay
DYEAR=1999
DGENRE=Alternative
TTITLE0=00
TTITLE1=What If
TTITLE2=Beautiful
TTITLE3=yy
TTITLE4=Wrong Way
TTITLE5=Faceless Man
TTITLE6=66
TTITLE7=With Arms Wide Open
TTITLE8=Higher
TTITLE9=Wash Away Those Years
TTITLE10=Insides Us All
EXTD=
EXTT0=
EXTT1=
EXTT2=
EXTT3=
EXTT4=
EXTT5=
EXTT6=
EXTT7=
EXTT8=
EXTT9=
EXTT10=
PLAYORDER=
